<?xml version="1.0" encoding="utf-8"?>
<!-- Generator: Adobe Illustrator 20.1.0, SVG Export Plug-In . SVG Version: 6.00 Build 0)  -->
<svg version="1.2" baseProfile="tiny" id="Layer_1" xmlns="http://www.w3.org/2000/svg" xmlns:xlink="http://www.w3.org/1999/xlink"
	 x="0px" y="0px" viewBox="0 0 72 72" xml:space="preserve">
<g>
	<path fill="#2B2B2B" d="M49.5,22.5c0,0,1.8-5.8-2.2-9.7c-3.9-3.9-10-5.6-11.7-11.6c-1.8,5.9-7.8,7.6-11.7,11.6
		c-3.9,3.9-1.8,9.3-1.8,9.3s-5.4-2.2-9.3,1.8c-3.9,3.9-5.6,10-11.6,11.7c5.9,1.8,7.6,7.8,11.6,11.7c3.9,3.9,9.7,2.2,9.7,2.2
		s-1.8,5.8,2.2,9.7c3.9,3.9,10,5.6,11.7,11.6c1.8-5.9,7.8-7.6,11.7-11.6c3.9-3.9,1.8-9.3,1.8-9.3s5.4,2.2,9.3-1.8
		c3.9-3.9,5.6-10,11.6-11.7c-5.9-1.8-7.6-7.8-11.6-11.7C55.3,20.7,49.5,22.5,49.5,22.5z M62.7,36c-6.2,4.5-6,9.2-9.7,11.2
		c-2,1.1-4.9-0.2-6.4-1c0.1-0.8,0.2-2.8-1.2-4.2c-1.8-1.8-3.5-0.1-3.5-0.1s-1.6,1.8,0.1,3.5c1.4,1.4,3.4,1.3,4.2,1.2
		c0.9,1.5,2.1,4.4,1,6.4c-2,3.7-6.7,3.5-11.2,9.7c-4.5-6.2-9.2-6-11.2-9.7c-1.1-2,0.1-4.8,1-6.4c0.8,0.1,2.7,0.2,4.1-1.2
		c1.8-1.8,0.1-3.5,0.1-3.5s-1.8-1.6-3.5,0.1c-1.4,1.4-1.3,3.3-1.2,4.1c-1.6,0.9-4.4,2.1-6.4,1c-3.7-2-3.5-6.7-9.7-11.2
		c6.2-4.5,6-9.2,9.7-11.2c2-1.1,4.9,0.2,6.4,1c-0.1,0.8-0.2,2.8,1.2,4.2c1.8,1.8,3.5,0.1,3.5,0.1s1.6-1.8-0.1-3.5
		c-1.4-1.4-3.4-1.3-4.2-1.2c-0.9-1.5-2.1-4.4-1-6.4c2-3.7,6.7-3.5,11.2-9.7c4.5,6.2,9.2,6,11.2,9.7c1.1,2-0.1,4.8-1,6.4
		c-0.8-0.1-2.7-0.2-4.1,1.2c-1.8,1.8-0.1,3.5-0.1,3.5s1.8,1.6,3.5-0.1c1.4-1.4,1.3-3.3,1.2-4.1c1.6-0.9,4.4-2.1,6.4-1
		C56.7,26.8,56.5,31.5,62.7,36z"/>
	<path d="M44.9,34.5c-2.4,0.6-4.8,0.7-5.8,0.6c-0.1-0.5-0.3-1.1-0.7-1.6c-0.5-0.4-1.1-0.5-1.6-0.7c0-1,0-3.4,0.6-5.8
		c0.8-3.2,2.3-5.4,2.3-5.4s-1.5-1.5-3.6-4.4c-2.1,3-3.6,4.4-3.6,4.4s1.5,2.3,2.3,5.4c0.6,2.3,0.6,4.6,0.6,5.7
		c-1.3,0.1-2.2,0.5-2.2,0.5s-0.5,0.9-0.5,2.2c-1,0-3.3-0.1-5.7-0.6c-3.2-0.8-5.4-2.3-5.4-2.3s-1.5,1.5-4.4,3.6
		c3,2.1,4.4,3.6,4.4,3.6s2.3-1.6,5.4-2.3c2.4-0.6,4.8-0.7,5.8-0.6c0.1,0.5,0.3,1.1,0.7,1.6c0.5,0.4,1.1,0.5,1.6,0.7
		c0,1,0,3.4-0.6,5.8c-0.8,3.2-2.3,5.4-2.3,5.4s1.5,1.5,3.6,4.4c2.1-3,3.6-4.4,3.6-4.4s-1.5-2.3-2.3-5.4c-0.6-2.3-0.6-4.6-0.6-5.7
		c1.3-0.1,2.2-0.5,2.2-0.5s0.5-0.9,0.5-2.2c1,0,3.3,0.1,5.7,0.6c3.2,0.8,5.4,2.3,5.4,2.3s1.5-1.5,4.4-3.6c-3-2.1-4.4-3.6-4.4-3.6
		S48,33.8,44.9,34.5z"/>
	<line fill="none" x1="39.2" y1="36.4" x2="39.1" y2="35.2"/>
	<path fill="#2B2B2B" d="M36.8,32.9c-0.4,0-0.9-0.1-1.3-0.1c0,0,0,0,0,0c-1.2,0.1-2.2,0.5-2.2,0.5s-0.5,0.9-0.5,2.2c0,0,0,0,0,0
		c0.1,0.4,0.1,0.8,0.1,1.3c0,0,0,0,0,0c0.1,0.5,0.3,1.1,0.7,1.6c0.5,0.4,1.1,0.5,1.6,0.7c0,0,0,0,0,0c0,0,0.1,0,0.1,0
		c0,0,0.1,0,0.1,0c0.2,0,0.3,0,0.5,0.1c0.2,0,0.3,0,0.5,0c0,0,0.1,0,0.1,0c1.2-0.1,2.1-0.5,2.1-0.5s0.5-0.9,0.5-2.2h0c0,0,0,0,0,0
		c0,0,0,0,0,0c0-0.4,0-0.8-0.2-1.3c0,0,0,0,0,0c-0.1-0.5-0.3-1-0.6-1.5C37.9,33.2,37.3,33,36.8,32.9z"/>
	<line fill="none" x1="35.6" y1="32.8" x2="36.8" y2="32.9"/>
	<line fill="none" x1="32.9" y1="36.8" x2="32.8" y2="35.6"/>
</g>
</svg>
