<svg version="1.2" baseProfile="tiny" xmlns="http://www.w3.org/2000/svg" viewBox="0 0 72 72"><path fill="#2B2B2B" d="M49.5 22.5s1.8-5.8-2.2-9.7c-3.9-3.9-10-5.6-11.7-11.6-1.8 5.9-7.8 7.6-11.7 11.6-3.9 3.9-1.8 9.3-1.8 9.3s-5.4-2.2-9.3 1.8c-3.9 3.9-5.6 10-11.6 11.7 5.9 1.8 7.6 7.8 11.6 11.7 3.9 3.9 9.7 2.2 9.7 2.2s-1.8 5.8 2.2 9.7c3.9 3.9 10 5.6 11.7 11.6 1.8-5.9 7.8-7.6 11.7-11.6 3.9-3.9 1.8-9.3 1.8-9.3s5.4 2.2 9.3-1.8c3.9-3.9 5.6-10 11.6-11.7-5.9-1.8-7.6-7.8-11.6-11.7-3.9-4-9.7-2.2-9.7-2.2zM62.7 36c-6.2 4.5-6 9.2-9.7 11.2-2 1.1-4.9-.2-6.4-1 .1-.8.2-2.8-1.2-4.2-1.8-1.8-3.5-.1-3.5-.1s-1.6 1.8.1 3.5c1.4 1.4 3.4 1.3 4.2 1.2.9 1.5 2.1 4.4 1 6.4-2 3.7-6.7 3.5-11.2 9.7-4.5-6.2-9.2-6-11.2-9.7-1.1-2 .1-4.8 1-6.4.8.1 2.7.2 4.1-1.2 1.8-1.8.1-3.5.1-3.5s-1.8-1.6-3.5.1c-1.4 1.4-1.3 3.3-1.2 4.1-1.6.9-4.4 2.1-6.4 1-3.7-2-3.5-6.7-9.7-11.2 6.2-4.5 6-9.2 9.7-11.2 2-1.1 4.9.2 6.4 1-.1.8-.2 2.8 1.2 4.2 1.8 1.8 3.5.1 3.5.1s1.6-1.8-.1-3.5c-1.4-1.4-3.4-1.3-4.2-1.2-.9-1.5-2.1-4.4-1-6.4 2-3.7 6.7-3.5 11.2-9.7 4.5 6.2 9.2 6 11.2 9.7 1.1 2-.1 4.8-1 6.4-.8-.1-2.7-.2-4.1 1.2-1.8 1.8-.1 3.5-.1 3.5s1.8 1.6 3.5-.1c1.4-1.4 1.3-3.3 1.2-4.1 1.6-.9 4.4-2.1 6.4-1 3.7 2 3.5 6.7 9.7 11.2z"/><path d="M44.9 34.5c-2.4.6-4.8.7-5.8.6-.1-.5-.3-1.1-.7-1.6-.5-.4-1.1-.5-1.6-.7 0-1 0-3.4.6-5.8.8-3.2 2.3-5.4 2.3-5.4s-1.5-1.5-3.6-4.4c-2.1 3-3.6 4.4-3.6 4.4s1.5 2.3 2.3 5.4c.6 2.3.6 4.6.6 5.7-1.3.1-2.2.5-2.2.5s-.5.9-.5 2.2c-1 0-3.3-.1-5.7-.6-3.2-.8-5.4-2.3-5.4-2.3s-1.5 1.5-4.4 3.6c3 2.1 4.4 3.6 4.4 3.6s2.3-1.6 5.4-2.3c2.4-.6 4.8-.7 5.8-.6.1.5.3 1.1.7 1.6.5.4 1.1.5 1.6.7 0 1 0 3.4-.6 5.8-.8 3.2-2.3 5.4-2.3 5.4s1.5 1.5 3.6 4.4c2.1-3 3.6-4.4 3.6-4.4s-1.5-2.3-2.3-5.4c-.6-2.3-.6-4.6-.6-5.7 1.3-.1 2.2-.5 2.2-.5s.5-.9.5-2.2c1 0 3.3.1 5.7.6 3.2.8 5.4 2.3 5.4 2.3s1.5-1.5 4.4-3.6c-3-2.1-4.4-3.6-4.4-3.6s-2.3 1.6-5.4 2.3z"/><path fill="none" d="M39.2 36.4l-.1-1.2"/><path fill="#2B2B2B" d="M36.8 32.9c-.4 0-.9-.1-1.3-.1-1.2.1-2.2.5-2.2.5s-.5.9-.5 2.2c.1.4.1.8.1 1.3.1.5.3 1.1.7 1.6.5.4 1.1.5 1.6.7h.2c.2 0 .3 0 .5.1h.6c1.2-.1 2.1-.5 2.1-.5s.5-.9.5-2.2c0-.4 0-.8-.2-1.3-.1-.5-.3-1-.6-1.5-.4-.5-1-.7-1.5-.8z"/><path fill="none" d="M35.6 32.8l1.2.1m-3.9 3.9l-.1-1.2"/></svg>